<svg width="16" height="16" viewBox="0 0 16 16" fill="none" xmlns="http://www.w3.org/2000/svg">
<path d="M4.00016 4.00001H9.3335M4.00016 6.66668H12.0002M8.66683 9.33334H12.0002M8.66683 12H12.0002M1.3335 14.2667V1.73334C1.3335 1.62726 1.37564 1.52552 1.45065 1.4505C1.52567 1.37549 1.62741 1.33334 1.7335 1.33334H12.1682C12.2742 1.33344 12.3759 1.37564 12.4508 1.45068L14.5495 3.54934C14.5868 3.58661 14.6164 3.63089 14.6365 3.67963C14.6567 3.72837 14.667 3.78061 14.6668 3.83334V14.2667C14.6668 14.3192 14.6565 14.3712 14.6364 14.4197C14.6163 14.4683 14.5868 14.5124 14.5497 14.5495C14.5125 14.5867 14.4684 14.6161 14.4199 14.6362C14.3714 14.6563 14.3194 14.6667 14.2668 14.6667H1.7335C1.68097 14.6667 1.62895 14.6563 1.58042 14.6362C1.53189 14.6161 1.4878 14.5867 1.45065 14.5495C1.41351 14.5124 1.38405 14.4683 1.36394 14.4197C1.34384 14.3712 1.3335 14.3192 1.3335 14.2667Z" stroke="#8C8C8C" stroke-linecap="round" stroke-linejoin="round"/>
<path d="M12 1.33334V3.60001C12 3.65254 12.0103 3.70455 12.0304 3.75308C12.0505 3.80161 12.08 3.84571 12.1172 3.88285C12.1543 3.92 12.1984 3.94946 12.2469 3.96956C12.2955 3.98966 12.3475 4.00001 12.4 4.00001H14.6667" stroke="#8C8C8C" stroke-linecap="round" stroke-linejoin="round"/>
<path d="M4 9.33334V12H6V9.33334H4Z" fill="#8C8C8C" stroke="#8C8C8C" stroke-linecap="round" stroke-linejoin="round"/>
</svg>
